HIERARCHY
ROOT Hips
{
	OFFSET 0.000000 0.000000 0.000000
	CHANNELS 6 Xposition Yposition Zposition Zrotation Yrotation Xrotation 
	JOINT LHipJoint
	{
		OFFSET 0.000000 0.000000 0.000000
		CHANNELS 3 Zrotation Yrotation Xrotation
		JOINT LeftUpLeg
		{
			OFFSET 1.363060 -1.794630 0.839290
			CHANNELS 3 Zrotation Yrotation Xrotation
			JOINT LeftLeg
			{
				OFFSET 2.448110 -6.726130 0.000000
				CHANNELS 3 Zrotation Yrotation Xrotation
				JOINT LeftFoot
				{
					OFFSET 2.562200 -7.039590 0.000000
					CHANNELS 3 Zrotation Yrotation Xrotation
					JOINT LeftToeBase
					{
						OFFSET 0.157640 -0.433110 2.322550
						CHANNELS 3 Zrotation Yrotation Xrotation
						End Site
						{
							OFFSET 0.000000 0.000000 0.000000
						}
					}
				}
			}
		}
	}
	JOINT RHipJoint
	{
		OFFSET 0.000000 0.000000 0.000000
		CHANNELS 3 Zrotation Yrotation Xrotation
		JOINT RightUpLeg
		{
			OFFSET -1.305520 -1.794630 0.839290
			CHANNELS 3 Zrotation Yrotation Xrotation
			JOINT RightLeg
			{
				OFFSET -2.542530 -6.985550 0.000000
				CHANNELS 3 Zrotation Yrotation Xrotation
				JOINT RightFoot
				{
					OFFSET -2.568260 -7.056230 0.000000
					CHANNELS 3 Zrotation Yrotation Xrotation
					JOINT RightToeBase
					{
						OFFSET -0.164730 -0.452590 2.363150
						CHANNELS 3 Zrotation Yrotation Xrotation
						End Site
						{
							OFFSET 0.000000 0.000000 0.000000
						}
					}
				}
			}
		}
	}
	JOINT LowerBack
	{
		OFFSET 0.000000 0.000000 0.000000
		CHANNELS 3 Zrotation Yrotation Xrotation
		JOINT Spine
		{
			OFFSET 0.028270 2.035590 -0.193380
			CHANNELS 3 Zrotation Yrotation Xrotation
			JOINT Spine1
			{
				OFFSET 0.056720 2.048850 -0.042750
				CHANNELS 3 Zrotation Yrotation Xrotation
				JOINT Neck
				{
					OFFSET 0.000000 0.000000 0.000000
					CHANNELS 3 Zrotation Yrotation Xrotation
					JOINT Neck1
					{
						OFFSET -0.054170 1.746240 0.172020
						CHANNELS 3 Zrotation Yrotation Xrotation
						JOINT Head
						{
							OFFSET 0.104070 1.761360 -0.123970
							CHANNELS 3 Zrotation Yrotation Xrotation
							End Site
							{
								OFFSET 0.000000 0.000000 0.000000
							}
						}
					}
				}
				JOINT LeftShoulder
				{
					OFFSET 0.000000 0.000000 0.000000
					CHANNELS 3 Zrotation Yrotation Xrotation
					JOINT LeftArm
					{
						OFFSET 3.362410 1.200890 -0.311210
						CHANNELS 3 Zrotation Yrotation Xrotation
						JOINT LeftForeArm
						{
							OFFSET 4.983000 -0.000000 -0.000000
							CHANNELS 3 Zrotation Yrotation Xrotation
							JOINT LeftHand
							{
								OFFSET 3.483560 -0.000000 -0.000000
								CHANNELS 3 Zrotation Yrotation Xrotation
								JOINT LeftFingerBase
								{
									OFFSET 0.000000 0.000000 0.000000
									CHANNELS 3 Zrotation Yrotation Xrotation
									JOINT LeftHandIndex1
									{
										OFFSET 0.715260 -0.000000 -0.000000
										CHANNELS 3 Zrotation Yrotation Xrotation
										End Site
										{
											OFFSET 0.000000 0.000000 0.000000
										}
									}
								}
								JOINT LThumb
								{
									OFFSET 0.000000 0.000000 0.000000
									CHANNELS 3 Zrotation Yrotation Xrotation
									End Site
									{
										OFFSET 0.000000 0.000000 0.000000
									}
								}
							}
						}
					}
				}
				JOINT RightShoulder
				{
					OFFSET 0.000000 0.000000 0.000000
					CHANNELS 3 Zrotation Yrotation Xrotation
					JOINT RightArm
					{
						OFFSET -3.136600 1.374050 -0.404650
						CHANNELS 3 Zrotation Yrotation Xrotation
						JOINT RightForeArm
						{
							OFFSET -5.241900 -0.000000 -0.000000
							CHANNELS 3 Zrotation Yrotation Xrotation
							JOINT RightHand
							{
								OFFSET -3.444170 -0.000000 -0.000000
								CHANNELS 3 Zrotation Yrotation Xrotation
								JOINT RightFingerBase
								{
									OFFSET 0.000000 0.000000 0.000000
									CHANNELS 3 Zrotation Yrotation Xrotation
									JOINT RightHandIndex1
									{
										OFFSET -0.622530 -0.000000 -0.000000
										CHANNELS 3 Zrotation Yrotation Xrotation
										End Site
										{
											OFFSET 0.000000 0.000000 0.000000
										}
									}
								}
								JOINT RThumb
								{
									OFFSET 0.000000 0.000000 0.000000
									CHANNELS 3 Zrotation Yrotation Xrotation
									End Site
									{
										OFFSET 0.000000 0.000000 0.000000
									}
								}
							}
						}
					}
				}
			}
		}
	}
}
MOTION
Frames: 9
Frame Time: 0.008333
6.682404 17.068478 -1.032227 140.348079 -85.317001 -137.768619 -0.700979 -4.200129 -3.012277 -1.925637 10.352383 -23.776053 4.491569 14.036788 41.026842 -0.095419 3.476988 4.308835 0.478500 -4.436000 -12.306500 -3.564234 2.919233 -4.256533 4.733887 -10.504520 -25.990867 -5.510702 -14.941661 44.887447 0.536370 -5.141429 -7.798634 -0.376400 3.940200 -10.908400 3.230659 0.353068 31.080648 0.528109 1.512241 -0.360848 1.050905 0.382868 0.419448 -7.219610 -0.561394 -21.578869 3.690384 1.585969 7.620189 0.865500 0.148300 12.776400 -7.786891 -3.645778 -0.749487 -71.258137 -12.868429 70.842108 48.509588 -52.195292 -24.912619 0.384784 -0.061707 -10.654367 15.762763 -14.108761 -3.810800 -7.125000 0.000000 0.000000 -8.222700 15.581600 5.772400 10.957499 4.884418 -0.119828 60.712658 9.509755 25.101993 -45.404540 47.741940 -25.570610 1.001095 2.099156 -23.706828 -11.347168 -31.153488 7.116700 7.125000 0.000000 0.000000 22.740200 -61.717400 -9.521600 
6.705625 17.057302 -1.030817 121.156461 -86.607910 -118.487114 -0.617385 -4.367871 -3.184927 -1.929532 9.200058 -24.182721 4.496163 14.076817 41.213202 0.062505 3.005813 4.688460 0.455200 -4.328100 -12.001500 -3.422101 2.833899 -4.111916 4.619494 -11.389169 -26.094915 -5.616069 -14.996056 45.216713 0.678812 -5.904410 -8.296184 -0.417700 4.148400 -11.494500 3.682101 0.133676 31.338751 0.528044 1.439276 -0.447097 0.840948 0.380409 0.000450 -7.003982 -0.099461 -21.340010 3.576649 2.079393 7.703388 0.836400 0.356900 12.789700 -7.755909 -3.738122 -0.715941 -70.759422 -13.717322 70.976018 49.467845 -52.471090 -25.613083 0.401207 -0.054185 -10.525183 16.066600 -14.227433 -3.919100 -7.125000 0.000000 0.000000 -8.028400 15.429100 5.659800 10.913401 4.900303 -0.198338 61.503151 8.314655 24.658797 -45.623117 47.906209 -25.781846 0.998024 2.050259 -24.065532 -11.652584 -30.871170 7.213600 7.125000 0.000000 0.000000 22.127900 -61.481100 -9.126800 
6.762048 17.045583 -1.040148 79.232486 -86.847397 -76.222830 -0.339213 -4.453141 -3.367131 -2.455322 7.617427 -25.009331 4.409945 14.159836 41.274254 0.199939 2.617566 5.274224 0.446500 -4.287400 -11.886600 -2.981802 2.913471 -3.959024 3.953116 -12.882665 -26.537472 -5.771966 -14.940062 45.538872 0.838978 -6.690800 -8.741971 -0.458800 4.345000 -12.049200 3.959750 -0.196149 31.789616 0.485868 1.193950 -0.643235 0.668750 0.364075 -0.886065 -6.640753 0.304698 -21.002755 3.378944 2.411659 7.699211 0.681300 0.499500 12.783800 -7.733399 -3.855002 -0.707949 -70.135541 -14.523809 71.214317 50.509124 -52.733337 -26.354021 0.423144 -0.058355 -10.625926 16.142999 -14.214819 -3.928300 -7.125000 0.000000 0.000000 -7.990200 15.445100 5.629500 10.850358 5.013845 -0.289312 62.316290 6.898804 24.086398 -45.991907 48.106427 -26.118133 0.986042 1.999280 -24.274170 -11.730984 -30.602248 7.180500 7.125000 0.000000 0.000000 21.800700 -61.206500 -8.842100 
6.795903 17.031803 -1.048829 56.168791 -86.197392 -52.879622 -0.210952 -4.402108 -3.445139 -2.659441 6.570531 -25.726920 4.340900 14.263360 41.290990 0.310644 2.322687 5.778481 0.463900 -4.368700 -12.116300 -2.781432 3.083006 -3.941637 3.683935 -13.401093 -26.674543 -5.888774 -14.898187 45.826038 1.018287 -7.611560 -9.370877 -0.446700 4.288300 -11.889100 4.070409 -0.153270 32.080375 0.452071 1.293881 -0.761005 0.495101 0.496149 -1.456274 -6.312824 0.524603 -20.703026 3.367759 2.528766 7.683645 0.629300 0.577300 12.752200 -7.710647 -3.909667 -0.691719 -69.572667 -15.389477 71.262036 51.616191 -53.013651 -27.164962 0.429023 -0.063787 -10.757757 16.369744 -13.969527 -3.916700 -7.125000 0.000000 0.000000 -7.836200 15.685300 5.478000 10.794209 5.111717 -0.359231 63.038066 5.524569 23.520385 -46.565965 48.418467 -26.684570 0.961860 1.999380 -24.429061 -11.705796 -31.340234 7.303200 7.125000 0.000000 0.000000 22.495500 -61.873000 -9.496200 
6.747617 17.035926 -1.031142 51.611064 -86.570723 -48.726875 -0.159585 -4.297296 -3.419883 -2.313125 6.881901 -25.343089 4.376067 14.266026 41.382490 0.487166 1.808195 5.834421 0.411800 -4.119600 -11.413300 -2.806642 3.144341 -4.020971 3.994774 -12.580394 -25.676082 -5.844697 -14.986948 45.843115 1.106789 -8.171679 -10.013717 -0.430900 4.212800 -11.676100 4.358680 0.387914 32.173665 0.425525 2.067758 -0.595435 0.276979 0.857187 -0.903636 -6.471281 0.464326 -21.023224 3.658617 2.584641 7.899761 0.906500 0.617300 12.931900 -7.696542 -3.824649 -0.644167 -69.332188 -16.681588 71.103414 52.620462 -53.277394 -27.937689 0.412674 -0.046829 -10.863658 17.042176 -13.828986 -4.059000 -7.125000 0.000000 0.000000 -7.365700 15.751900 5.132700 10.763674 5.111382 -0.377014 63.423920 4.541629 23.040216 -47.167486 48.758308 -27.287150 0.925983 1.999859 -24.667085 -11.600709 -31.824378 7.325700 7.125000 0.000000 0.000000 23.088100 -62.288500 -9.988000 
6.734813 17.034950 -1.017579 43.338628 -85.886326 -40.461015 -0.148060 -4.307648 -3.502263 -2.542454 6.608998 -25.505430 4.334633 14.351625 41.457073 0.697216 1.187156 6.156510 0.342800 -3.762200 -10.408600 -2.797232 3.221628 -4.126021 3.658050 -12.796121 -25.145853 -5.857085 -14.940476 45.824435 1.186748 -8.609586 -10.420469 -0.413500 4.127900 -11.436900 4.332787 0.701723 31.607337 0.414866 2.358829 -0.319399 0.246061 0.985691 0.352774 -6.312315 0.541032 -21.469325 3.295760 2.650509 7.677034 0.637000 0.625100 12.732700 -7.626537 -3.745561 -0.526763 -69.067200 -18.763233 70.729456 53.407606 -53.447714 -28.546494 0.390159 -0.003764 -11.226954 18.023622 -13.968030 -4.373500 -7.125000 0.000000 0.000000 -6.686900 15.472800 4.693200 10.828570 4.958357 -0.335727 63.500171 4.624027 22.657358 -47.239199 48.833738 -27.390897 0.903799 1.980236 -24.815280 -11.505009 -31.525590 7.199200 7.125000 0.000000 0.000000 22.934400 -61.981600 -9.751300 
6.703563 17.042979 -0.985135 39.273945 -85.558414 -36.536186 -0.150241 -4.297161 -3.503425 -2.702828 6.634090 -25.572763 4.336742 14.406424 41.579280 0.842358 0.737495 6.280777 0.342500 -3.760600 -10.404000 -2.788131 3.250074 -4.155391 3.445568 -12.600954 -24.505405 -5.834382 -14.909046 45.734197 1.278963 -9.100714 -10.764020 -0.390900 4.014900 -11.118500 4.536288 1.022070 31.780346 0.353539 2.812307 -0.277169 -0.152732 1.252229 0.392685 -6.193991 0.617759 -21.392555 3.147468 2.680483 7.665291 0.550300 0.627300 12.693100 -7.605327 -3.760036 -0.484882 -68.779149 -19.737039 70.496749 54.111454 -53.583948 -29.111801 0.359540 0.024632 -11.764995 18.930601 -14.020090 -4.647200 -7.125000 0.000000 0.000000 -6.051500 15.299800 4.264400 10.822459 4.957682 -0.365863 63.765097 3.775185 22.441700 -47.300940 48.937076 -27.513817 0.892136 1.989585 -24.777091 -11.406058 -31.976394 7.227700 7.125000 0.000000 0.000000 23.480200 -62.375000 -10.215700 
6.696836 17.042003 -0.969510 32.622681 -84.966162 -29.874729 -0.138127 -4.299446 -3.552985 -2.712504 6.467310 -25.930228 4.338033 14.460368 41.691057 1.003753 0.242795 6.616020 0.386100 -3.990000 -11.048600 -2.791952 3.295746 -4.171917 3.474438 -12.507699 -24.174418 -5.852839 -14.917285 45.815431 1.436977 -9.923739 -11.295244 -0.409200 4.106600 -11.376700 4.786860 1.239434 31.930093 0.330491 3.154099 -0.243086 -0.382802 1.445250 0.461667 -6.178362 0.530463 -21.465015 3.106557 2.558637 7.612349 0.524000 0.570800 12.672200 -7.583009 -3.764549 -0.453341 -68.577519 -20.841191 70.046658 54.820677 -53.695154 -29.665685 0.322284 0.020756 -12.061223 19.352139 -13.264427 -4.517900 -7.125000 0.000000 0.000000 -5.716600 16.047400 3.933400 10.821011 4.977801 -0.383315 63.865358 3.188825 22.303708 -47.262397 48.973396 -27.533463 0.887136 1.995666 -24.625442 -11.335693 -32.227441 7.234100 7.125000 0.000000 0.000000 23.812800 -62.592600 -10.491400 
6.736224 17.020844 -1.001086 24.165900 -83.283677 -21.369248 -0.122635 -4.341918 -3.652850 -2.685102 5.838668 -26.594571 4.288068 14.513940 41.734127 1.290300 -0.637384 7.495473 0.442200 -4.267000 -11.829100 -2.783484 3.345591 -4.147019 3.526724 -13.123174 -23.993049 -5.938330 -14.918562 46.076236 1.647984 -11.022817 -12.114175 -0.420000 4.159500 -11.526000 4.873694 1.149973 32.364967 0.363749 3.105726 -0.267718 -0.260892 1.415643 0.239984 -6.234925 0.232160 -21.546731 3.215357 2.194951 7.525733 0.546600 0.425900 12.681700 -7.574990 -3.792200 -0.445924 -68.352942 -21.822964 69.472121 55.526088 -53.783693 -30.202316 0.290069 0.000591 -12.412669 19.381802 -12.257926 -4.189900 -7.125000 0.000000 0.000000 -5.647500 17.115800 3.753700 10.811988 5.054195 -0.399335 63.884734 2.797474 22.194822 -47.087243 48.901290 -27.380759 0.896170 1.968528 -24.367573 -11.372765 -31.702939 7.147700 7.125000 0.000000 0.000000 23.270800 -62.111000 -9.974000 
